<?xml version="1.0" encoding="UTF-8"?>
<svg id="Layer_1" xmlns="http://www.w3.org/2000/svg" version="1.1" viewBox="0 0 227.5 60">
  <!-- Generator: Adobe Illustrator 30.4.0, SVG Export Plug-In . SVG Version: 2.1.4 Build 226)  -->
  <defs>
    <style>
      .st0 {
        fill: #fff;
      }

      .st1 {
        fill: #d7282f;
      }
    </style>
  </defs>
  <rect width="227.5" height="60"/>
  <g>
    <g>
      <path class="st0" d="M73.85,24.93c.34,0,.5.15.5.45,0,.14-.04.29-.13.45l-1.04,1.79c-.14.25-.34.46-.63.64-.28.17-.54.26-.78.26h-4.48c-.35,0-.52-.15-.52-.45,0-.14.04-.29.13-.45l.52-.9c.09-.16.13-.31.13-.45,0-.3-.17-.45-.5-.45-.25,0-.51.09-.78.26-.27.17-.49.38-.64.63l-4.16,7.16c-.14.25-.34.47-.63.64-.28.18-.54.27-.77.27h-4.47c-.35,0-.52-.15-.52-.45,0-.13.04-.28.13-.45l4.66-8.06c.14-.25.35-.46.63-.63.28-.18.54-.26.79-.26h12.55Z"/>
      <path class="st0" d="M89.66,24.93c.34,0,.5.15.5.45,0,.14-.04.29-.13.45l-4.67,8.06c-.14.25-.35.46-.63.64-.28.17-.54.26-.77.26h-12.55c-.35,0-.52-.15-.52-.45,0-.13.04-.28.13-.45l2.07-3.59c.15-.25.36-.46.63-.63.28-.18.54-.26.79-.26h6.27c.25,0,.51-.09.79-.26.27-.18.49-.38.64-.63l1.03-1.79c.08-.16.12-.32.12-.45,0-.3-.17-.45-.5-.45-.25,0-.5.09-.78.26-.27.18-.48.39-.63.64l-.52.9c-.14.25-.35.46-.62.63-.28.18-.54.26-.78.26h-4.5c-.35,0-.52-.15-.52-.45,0-.14.05-.29.13-.45l1.04-1.79c.14-.25.35-.46.63-.63.28-.18.54-.26.79-.26h12.55ZM80.65,31.21c.09-.16.13-.31.13-.45,0-.3-.17-.45-.52-.45-.25,0-.51.09-.78.26-.27.17-.48.39-.62.63l-1.05,1.79c-.09.17-.13.31-.13.45,0,.3.17.45.5.45.25,0,.51-.09.79-.26.28-.18.49-.39.63-.64l1.04-1.79Z"/>
      <path class="st0" d="M98.82,28.52c-.35,0-.52-.15-.52-.45,0-.14.04-.29.13-.45l.52-.9c.09-.16.13-.31.13-.45,0-.3-.17-.45-.5-.45-.25,0-.51.09-.78.26-.27.17-.49.39-.63.63l-3.62,6.27c-.09.16-.13.31-.13.45,0,.3.17.45.5.45.25,0,.52-.09.79-.26.28-.18.49-.39.63-.64l1.55-2.69c.15-.25.36-.46.63-.64.27-.18.54-.26.78-.26h4.48c.35,0,.52.15.52.45,0,.14-.05.29-.15.45l-2.07,3.59c-.13.25-.34.46-.62.64-.28.17-.54.26-.78.26h-12.55c-.35,0-.52-.15-.52-.45,0-.13.04-.28.13-.45l4.67-8.06c.13-.25.34-.46.63-.63.28-.18.54-.26.79-.26h12.54c.33,0,.51.15.51.45,0,.14-.05.29-.13.45l-1.05,1.79c-.14.25-.34.46-.62.64-.28.17-.54.26-.78.26h-4.48Z"/>
      <path class="st0" d="M102.94,34.79c-.35,0-.52-.15-.52-.45,0-.13.04-.28.13-.45l4.67-8.06c.14-.25.35-.46.63-.63.28-.17.54-.26.79-.26h4.48c.33,0,.5.15.5.45,0,.14-.04.29-.13.45l-4.67,8.06c-.14.25-.35.46-.63.64-.28.17-.54.26-.78.26h-4.48Z"/>
      <path class="st0" d="M128.92,24.93c.34,0,.51.15.51.45,0,.14-.04.29-.13.45l-4.67,8.06c-.14.25-.35.46-.62.64-.28.17-.54.26-.78.26h-4.48c-.35,0-.52-.15-.52-.45,0-.13.04-.28.13-.45l4.14-7.17c.09-.16.13-.31.13-.45,0-.3-.17-.45-.5-.45-.25,0-.51.09-.79.26-.27.17-.49.39-.64.63l-4.15,7.17c-.13.25-.34.46-.62.64-.28.17-.54.26-.78.26h-4.48c-.35,0-.52-.15-.52-.45,0-.13.04-.28.13-.45l4.67-8.06c.13-.25.34-.46.62-.63.28-.18.55-.26.8-.26h12.54Z"/>
      <path class="st0" d="M133,36.94c-.07-.13-.11-.31-.11-.52,0-.31.08-.59.23-.84.06-.12.09-.24.09-.35,0-.29-.18-.43-.54-.43h-6.27c-.35,0-.53-.15-.53-.45,0-.13.04-.28.13-.45l4.67-8.06c.14-.25.35-.46.63-.63.28-.18.54-.26.79-.26h12.54c.34,0,.51.15.51.45,0,.14-.05.29-.13.45l-1.05,1.79c-.13.25-.35.46-.62.63-.29.17-.54.26-.77.26h-4.48c-.35,0-.52-.15-.52-.45,0-.14.04-.29.13-.45l.52-.9c.09-.16.14-.31.14-.45,0-.3-.16-.45-.51-.45-.24,0-.51.09-.78.26-.27.17-.48.38-.63.63l-3.62,6.27c-.09.17-.13.31-.13.45,0,.3.16.45.5.45.25,0,.51-.09.79-.26.28-.18.48-.39.62-.64l1.55-2.69c.15-.25.36-.46.64-.63.27-.18.54-.26.78-.26h4.48c.35,0,.53.15.53.45,0,.14-.05.29-.15.45l-6.06,10.53c-.19.32-.39.49-.6.49-.11,0-.2-.06-.26-.18l-2.48-4.2Z"/>
      <path class="st0" d="M160.62,24.93c.34,0,.51.15.51.45,0,.14-.04.29-.13.45l-4.67,8.06c-.14.25-.35.46-.62.64-.28.17-.54.26-.78.26h-12.54c-.35,0-.52-.15-.52-.45,0-.13.04-.28.13-.45l8.68-15.01c.19-.32.38-.49.58-.49.12,0,.21.06.28.17l2.48,4.22c.07.12.11.3.11.51,0,.31-.07.6-.22.86-.08.13-.11.24-.11.36,0,.29.18.43.56.43h6.27ZM154.2,26.73c.09-.16.13-.31.13-.45,0-.3-.17-.45-.51-.45-.24,0-.51.09-.78.26-.27.17-.48.39-.63.64l-3.62,6.27c-.09.16-.13.31-.13.45,0,.3.17.45.5.45.25,0,.52-.09.79-.26.28-.18.49-.39.62-.64l3.62-6.27Z"/>
      <path class="st0" d="M176.81,24.93c.34,0,.5.15.5.45,0,.14-.04.29-.13.45l-1.04,1.79c-.14.25-.34.46-.62.64-.28.17-.54.26-.78.26h-4.47c-.35,0-.53-.15-.53-.45,0-.14.04-.29.13-.45l.52-.9c.09-.16.13-.31.13-.45,0-.3-.17-.45-.5-.45-.25,0-.51.09-.79.26-.28.17-.49.38-.63.63l-4.16,7.16c-.14.25-.34.47-.63.64-.28.18-.54.27-.77.27h-4.47c-.35,0-.52-.15-.52-.45,0-.13.04-.28.13-.45l4.67-8.06c.14-.25.34-.46.63-.63.28-.18.54-.26.79-.26h12.55Z"/>
      <path class="st0" d="M192.43,24.93c.33,0,.5.15.5.45,0,.14-.04.29-.13.45l-4.67,8.06c-.14.25-.35.46-.63.64-.28.17-.54.26-.78.26h-12.54c-.35,0-.52-.15-.52-.45,0-.13.04-.28.13-.45l4.67-8.06c.14-.25.35-.46.63-.63.28-.18.55-.26.79-.26h12.55ZM186.01,26.73c.09-.16.13-.31.13-.45,0-.3-.17-.45-.5-.45-.25,0-.51.09-.78.26-.28.17-.48.39-.64.64l-3.62,6.27c-.08.16-.13.31-.13.45,0,.3.17.45.5.45.25,0,.51-.09.79-.26.28-.18.49-.39.63-.64l3.62-6.27Z"/>
      <path class="st0" d="M202.06,28.52c-.35,0-.52-.15-.52-.45,0-.14.04-.29.13-.45l.52-.9c.09-.16.13-.31.13-.45,0-.3-.17-.45-.5-.45-.25,0-.51.09-.79.26-.27.17-.48.38-.63.63l-1.04,1.78c-.09.17-.13.32-.13.46,0,.3.17.45.52.45h6.28c.35,0,.53.15.53.45,0,.14-.05.29-.15.45l-2.07,3.59c-.13.25-.34.46-.62.64-.28.17-.54.26-.78.26h-12.54c-.35,0-.53-.15-.53-.45,0-.13.05-.28.13-.45l1.04-1.79c.14-.25.35-.46.63-.64.28-.17.54-.26.79-.26h4.48c.34,0,.51.15.51.45,0,.14-.04.29-.13.45l-.52.89c-.08.17-.13.31-.13.45,0,.3.17.45.51.45.25,0,.51-.09.79-.26.29-.18.5-.39.63-.64l1.05-1.79c.08-.16.13-.32.13-.45,0-.3-.17-.45-.52-.45h-6.27c-.34,0-.51-.14-.51-.45,0-.13.05-.28.13-.45l2.07-3.58c.14-.25.35-.46.62-.63.28-.18.54-.26.8-.26h12.54c.33,0,.5.15.5.45,0,.14-.05.29-.13.45l-1.04,1.79c-.14.25-.35.46-.63.64-.28.17-.54.26-.77.26h-4.48Z"/>
    </g>
    <g>
      <rect class="st1" x="14.5" y="13.54" width="32.68" height="32.68" rx="2.98" ry="2.98"/>
      <path class="st0" d="M44.82,28.91h-8.23c-.12,0-.22-.01-.31-.04-.27-.07-.4-.25-.4-.53,0-.14.04-.31.13-.46.19-.35.3-.72.3-1.13,0-.28-.05-.5-.14-.66l-2.26-3.85h4.21c.32,0,.67-.11,1.04-.35.37-.22.64-.5.82-.83l1.35-2.36c.13-.2.2-.4.2-.59,0-.39-.22-.58-.68-.58h-16.46c-.33,0-.68.11-1.03.35-.36.22-.64.5-.84.82l-6.12,10.59c-.12.21-.18.41-.18.59,0,.39.22.59.66.59h5.87c.33,0,.68-.11,1.04-.34.37-.23.64-.5.82-.84l5.47-9.4c.18-.32.45-.6.82-.83.36-.23.7-.34,1.01-.34.46,0,.69.19.69.59,0,.18-.06.37-.18.59l-.58,1s-.04.06-.06.09l-11.4,19.68c-.11.21-.18.41-.18.59,0,.39.22.59.66.59h16.46c.33,0,.68-.11,1.05-.34.36-.23.64-.51.81-.84l6.12-10.57c.14-.21.2-.42.2-.59,0-.4-.22-.59-.68-.59ZM36.42,31.27l-4.77,8.22c-.2.32-.47.61-.84.83-.35.23-.71.34-1.02.34-.46,0-.7-.2-.7-.58,0-.18.08-.38.21-.59l4.77-8.22c.18-.33.46-.61.82-.84.36-.22.7-.34,1.01-.34.45,0,.68.19.68.59,0,.18-.06.37-.17.59Z"/>
    </g>
  </g>
</svg>